/* XPM */
static char *result[] = {
/* columns rows colors chars-per-pixel */
"32 32 184 2 ",
"   c #0A1C04",
".  c #0A1D04",
"X  c #0D2105",
"o  c #0D2204",
"O  c #0D2205",
"+  c #0D2305",
"@  c #0E2605",
"#  c #0D2506",
"$  c #0E2606",
"%  c #0E2805",
"&  c #0F2905",
"*  c #0F2907",
"=  c #102B05",
"-  c #102A06",
";  c #102B07",
":  c #102C06",
">  c #112D06",
",  c #112D07",
"<  c #112F06",
"1  c #112F07",
"2  c #123007",
"3  c #123107",
"4  c #133207",
"5  c #133407",
"6  c #133507",
"7  c #163707",
"8  c #153807",
"9  c #143708",
"0  c #143808",
"q  c #153808",
"w  c #163C08",
"e  c #173F08",
"r  c #650000",
"t  c #1A4207",
"y  c #1A4109",
"u  c #1A4208",
"i  c #184509",
"p  c #1A4709",
"a  c #18440A",
"s  c #19440A",
"d  c #1B470A",
"f  c #1C4C0B",
"g  c #1C4E0A",
"h  c #184B0D",
"j  c #1E530B",
"k  c #19550E",
"l  c #1E5C0F",
"z  c #0D4315",
"x  c #20580B",
"c  c #285F0D",
"v  c #0F641B",
"b  c #1B6111",
"n  c #1B6512",
"m  c #1A6612",
"M  c #1B6612",
"N  c #1B6712",
"B  c #1C6512",
"V  c #1C6712",
"C  c #1D6712",
"Z  c #1C6812",
"A  c #1C6912",
"S  c #1D6912",
"D  c #1E6912",
"F  c #1D6A12",
"G  c #1E6A12",
"H  c #1E6B12",
"J  c #1F6B12",
"K  c #1E6C12",
"L  c #1F6C12",
"P  c #27610B",
"I  c #26610C",
"U  c #2D6A0D",
"Y  c #2A6F0E",
"T  c #2A770F",
"R  c #2D7A0F",
"E  c #327D0F",
"W  c #216911",
"Q  c #206A12",
"!  c #216C12",
"~  c #206D12",
"^  c #216E12",
"/  c #226E12",
"(  c #226F12",
")  c #237012",
"_  c #267112",
"`  c #2A7310",
"'  c #2B7610",
"]  c #2B7710",
"[  c #2C7510",
"{  c #2A7810",
"}  c #2B7810",
"|  c #2A7910",
" . c #2B7910",
".. c #2B7A10",
"X. c #2C7810",
"o. c #2C7910",
"O. c #2C7A10",
"+. c #2D7A10",
"@. c #2C7B10",
"#. c #2D7B10",
"$. c #2E7A10",
"%. c #2C7C10",
"&. c #2D7C10",
"*. c #2D7D10",
"=. c #2E7C10",
"-. c #2E7D10",
";. c #2F7D10",
":. c #2E7E10",
">. c #2F7E10",
",. c #2F7F10",
"<. c #307D10",
"1. c #327C10",
"2. c #307E10",
"3. c #317E10",
"4. c #307F10",
"5. c #3D7F13",
"6. c #841111",
"7. c #A91414",
"8. c #C20A0A",
"9. c #E50707",
"0. c red",
"q. c #FF6E6E",
"w. c #308010",
"e. c #318010",
"r. c #318110",
"t. c #328010",
"y. c #338010",
"u. c #328110",
"i. c #338110",
"p. c #328210",
"a. c #348010",
"s. c #348110",
"d. c #358110",
"f. c #358210",
"g. c #358310",
"h. c #368210",
"j. c #368310",
"k. c #398510",
"l. c #3C8610",
"z. c #439712",
"x. c #449612",
"c. c #449712",
"v. c #459712",
"b. c #439812",
"n. c #449812",
"m. c #459812",
"M. c #449912",
"N. c #459912",
"B. c #469912",
"V. c #459A12",
"C. c #469A12",
"Z. c #469B12",
"A. c #479B12",
"S. c #469C12",
"D. c #479C12",
"F. c #489A12",
"G. c #489C12",
"H. c #499C12",
"J. c #489D12",
"K. c #499D12",
"L. c #4A9D12",
"P. c #499F12",
"I. c #4A9E12",
"U. c #4BA112",
"Y. c #4DA012",
"T. c #4DA312",
"R. c #4FA312",
"E. c #5CB614",
"W. c #5CB814",
"Q. c #5DB814",
"!. c #5CB914",
"~. c #5DB914",
"^. c #5DBA14",
"/. c #5EBA14",
"(. c #5FBA14",
"). c #5EBB14",
"_. c #5FBC14",
"`. c #5FBD14",
"'. c #60BD14",
"]. c #61BE14",
"[. c #62C014",
"{. c #68C214",
"}. c #8AB516",
"|. c #FB9C9C",
/* pixels */
",.O.r.>.+.w.&.O.o.o.O.O.@.O.O. . . . .{ y.t.:.{ :.@.@.O.&.@.f.a.",
">.-.@.:.(.+.O.&.&.O.O.@.O.@...O.O.O. ... .s.s.~ S #.>.s.O.@.o.f.",
"4.:.@.O.^.].w.w.M.O.@.@.@./.].n.O.O.@.Y.J. .4.L ^ S >.@.V B X.O.",
"O.4.O.O.K.].:.c.c.@.4.@.@.O.^.Q.N.@.B.m.>.-.O.r.( V @.S Z j.s.>.",
"4.^./.&.;.K.X.c.@.@.w.@.L.Z.&.M.n.#.V.o.n._.`.O.>.V =.Z @.O.s.>.",
"@.3.Z.n.o.O.@.>.-.o.X.o.@.Z.A.+.#.O.=.G.{.[.-.&.O.O.@.@.@.@.@.,.",
"&.O.&.O.O.@.@.o.o.@.o.<.&.O.j.}.z =.O.K.D.@.;.@...O.@.@.@.@.@.O.",
"O.O.V.n. . .o.o.O.O.Z ! / ,.z }.}.z t.-.u.#.@.2.} w.O.@.#.#.@.#.",
"..n.n... .O.O. .<.=.o.Z ! z }.}.}.v v I.F.-.@.#.O.#.).&.#.@.4.O.",
"..-. .O. . .3.o.@.2.=.v }.}.5.}.5.5.}.}.v V.@.O. .@.^.).@.@.M.#.",
"O.%.O.-.~ &.&.@.&.H }.}.}.}.5.v 5.}.}.}.}.5. .#.@.@.V._.#.Z.V.@.",
" .@.O.Q D &.@.O.-.&.z z v 5.z v v z 5.z z z O.N.A.=.#.Z.#.M.&.@.",
"A A  .n O.Z F @.@.,.7.0.v }.}.5.5.}.}.v 9.7.} k.P.T.>.-.;.#.@.-.",
"S S / 1.Z S @.@.@.7.0.0.0.}.}.v z }.}.5.9.9.7.&.e.e.u.4.-.&.p...",
"&.G K %.D ,.@.O.6.9.|.q.0.}.v 9.9.5.}.9.9.9.9.6.@.:.u.J ( H w.>.",
"&.&.=.#.+.O.O.@.7.0.q.q.0.z 9.9.9.9.v 9.9.9.9.6.F #.S S ) &.O.*.",
"&.*. . .O.&.>.4.8.0.0.0.0.0.9.9.9.9.9.9.9.9.9.6.N  .Z S @.@.@.O.",
"O.-.@.M.D.*.-.~.8.0.0.0.0.0.9.9.9.9.9.9.9.9.9.7. .O.@.O.S Z Z O.",
"*.@.@.-.P.S.o.E.8.9.0.0.0.9.9.9.9.9.9.9.9.9.8.7.X.O.@.S D Z #.#.",
"4.@.@.@.e.c.@.l.7.8.9.0.9.9.9.9.9.9.9.9.9.8.7.7.>.O.&.t.O.#.<.o.",
"_.'.R.-.e.o.w.P 6.8.8.8.9.9.9.9.9.9.9.9.7.7.7.r  .-.@.~ G &.>.@.",
" ./.[.U.@.4.4.I t 6.8.8.8.8.8.8.7.7.7.7.7.7.r e ] @.@.&.Z J  .@.",
"G S Z.J.@.4.#.[ u 7 r 8.8.8.8.8.8.8.7.7.7.r 8 p T |  .O.O.Z -. .",
"{ G F O.@.&.O.>.x q 4 r 6.8.8.8.7.7.7.6.r , 6 Y ..O. .O. .O.@.@.",
"@.b.J.....O.=.&.` w 3 ; X r r r r r r : 1 < f v.Z.o.@. .b.n.n.O.",
"c.n.b.O...#.;.O.$.c 9 = + o .   O # % 2 5 h #.@.G.z.=.z.b.b.O.O.",
"N N N @.b.n. .@.2.R U y @ $ & * - - > 0 k R >.@.@.n.@.Z.V.O.O.O.",
" .A m b.W.b.s.x.o._ C b j i d a s g l W e.=.4.O.O.&.@.@.} =.>.&.",
"} ..m !.`.N H n.H.J N >.{ O. .E ' #.@.i.4.4.=.@.M.Z.&.o.o.O.>.w.",
"| { | !.M N Z Z K.J &. ...%.-.{ -.s.h.;.4.;.2.C.n.s.O.@.&.@.o.;.",
"O. . .2.V O.@.Z O.>.O.O...>.{ -.*.f.+.+.=.&.d.w.O.>.o.@.o.o.O.O.",
"O.O.g.=.@.-.3.2.@.O.O.O.O. .@.-.-.O.+.&.@.@.X.,.,...@.O.o.@.O.O."
};
