/* XPM */
static char *result[] = {
/* columns rows colors chars-per-pixel */
"32 32 106 2 ",
"   c #040406",
".  c #0A0707",
"X  c #0E0807",
"o  c #050608",
"O  c #080708",
"+  c #0B0809",
"@  c #1D0D07",
"#  c #140D0A",
"$  c #190E09",
"%  c #0B1E06",
"&  c #1D110C",
"*  c #141D09",
"=  c #191211",
"-  c #231107",
";  c #24130B",
":  c #2B160C",
">  c #33160A",
",  c #341A0E",
"<  c #39190E",
"1  c #231713",
"2  c #231917",
"3  c #2B1A12",
"4  c #241D1C",
"5  c #2B1C1A",
"6  c #331F13",
"7  c #3C1F12",
"8  c #0E2307",
"9  c #0E2408",
"0  c #0F2B09",
"q  c #112C07",
"w  c #112C09",
"e  c #0F310A",
"r  c #143807",
"t  c #133409",
"y  c #1B370D",
"u  c #143A0A",
"i  c #1A3C0B",
"p  c #24320E",
"a  c #2E211E",
"s  c #362113",
"d  c #31221E",
"f  c #2B2323",
"g  c #2E292B",
"h  c #332522",
"j  c #362924",
"k  c #312B2D",
"l  c #412413",
"z  c #472B16",
"x  c #4A2C19",
"c  c #512314",
"v  c #582D17",
"b  c #572E19",
"n  c #592C19",
"m  c #57351D",
"M  c #5A311C",
"N  c #672B16",
"B  c #662B19",
"V  c #66361C",
"C  c #69341B",
"Z  c #6E3C1E",
"A  c #703C1E",
"S  c #6B3D20",
"D  c #15430E",
"F  c #19430A",
"G  c #14480D",
"H  c #1E4F0C",
"J  c #17520F",
"K  c #1E530C",
"L  c #21540C",
"P  c #215B0D",
"I  c #2D5C0B",
"U  c #1B6612",
"Y  c #1D6912",
"T  c #266B0F",
"R  c #286D0F",
"E  c #336E0D",
"W  c #2B760F",
"Q  c #2C790F",
"!  c #30780F",
"~  c #216D12",
"^  c #267112",
"/  c #2B7710",
"(  c #2C7B10",
")  c #307E10",
"_  c #3F7D11",
"`  c #6A4326",
"'  c #7F542F",
"]  c #7E5430",
"[  c #834726",
"{  c #844927",
"}  c #8C532D",
"|  c #8A5934",
" . c #925C33",
".. c #A26D3E",
"X. c #A77444",
"o. c #A87341",
"O. c #338110",
"+. c #3F8111",
"@. c #449712",
"#. c #459912",
"$. c #499D12",
"%. c #4DA012",
"&. c #5AB113",
"*. c #5EBA14",
"=. c #61BE14",
"-. c #68C214",
/* pixels */
"( ( O.( ( O.( ( ( ( ( ( ( ( ( ( / / ( / O.O.( ( ( ( ( ( ( ( O.O.",
"O.( ( ( *.( ( ( ( ( ( ( / ( ( ( ( ( / / ( O.O.~ Y ( ( O.( ( ( O.",
"O.O.( ( =.=.O.O.@.( ( ( ( *.*.@.( ( ( %.$.Q O.Y ^ Y ( ( Y Y ( ( ",
"( ( ( ( %.=.O.+.f d k ( ( ( *.*.#.( @.@.Q 4 a g ~ Y ( Y Y O.O.) ",
"O.*.*.O.O.#./ O.j X.h ( %.#.Q #.@.( #.( #.3 ] g ( Y ( Y ( ( ) ) ",
"O.O.#.O./ O.O.O.h  .f W ( $.$.Q ( ( ( $.-.3 ] k ( ( ( ( ( ( ( ) ",
"O.~ O.O.O.^ O.O.d [ h ) ( ( O.Q ( ( / $.$.: S g ( ( ( ( ( ( ( ( ",
"O.O.#.#.^ O./ / 5 [ x ` m m M b m m b M c < C f ( ) ( ( ( ( ( ( ",
"~ O.#.O.( ( ( ( ; [ z ` M b b b v v n n c < V 4 ( ( *.( ( ( O.( ",
"O.O.O.O./ ( ( ( 1 ..2 ( Y Y Q Y ( ( ( ) @.3 S 4 / ( *.*.( ( @.( ",
"Y O.Y O.Y O.! Q 2 o.2 Y Q ( O.Q ( ( ( ( Q : ' 4 ( ( #.*.( #.$.( ",
"O.O.O.U Y O.Q Q 3 o.5 Y Y Q Q Q ( ( ( ( ( : ] 4 #.( ( $.( #.( ( ",
"U U O.U Y G F i $ M > , : : ; ; ; ; : > > : S 5 _ @.Q Q O.( ( ( ",
"U U Y O.e e 8 * # < s s s ; : - : ; > < : - l 6 p y i K Q ( O.( ",
"O.U U J     . . # l : $ X X X . X X # $ # & l 6 # .     G U O.O.",
"O.U e e         @ ` ; o O O   .     o + . & n 2 .       e K ( ( ",
"R r       o o o - { 1 O   o o     o o o o - V 2   o o o     ( ( ",
"R 8     o o   o - } s x < 7 7 7 7 7 < < < < V 2 o o O o   o U ( ",
"Q r % q     o   o o.m | A A Z Z Z A C N B < V # o o o   t J ( ( ",
"O.K q 8         o o & = = = = * = = = = = ; 3     o     t H ) ( ",
"*.&.I 8 q 8 i K o o o                           t 0 0 9 e T ) ( ",
"Q *.*.E t 0 8 q                                 % w t L U Y ( ( ",
"Y Y $.$.W H t t 8 t 8 0 8 8 e 8 w % w 8 0 0 w t F K ^ ( / Y ( ( ",
"Q Y Y ( Q Q W T P F i u e e e e i F u D K P T W / ( / ( / ( ( ( ",
"( +.#.O.O.O.O.O.O.Y O.O.O.Y U U O.U U O.O.O.O.#.#.( ( / @.@.#.( ",
"#.%.#.O.O.~ O.~ O.@.#.#.O.O.O.U O.U O.U U U O.~ $.@.( @.@.#.( ( ",
"Y U U O.#.#.~ O.O.O.@.@.O.O.O.O.Y O.U Y U O.O.O.( #.( $.#.( ( / ",
"O.U U O.*.#.O.O.O.Y U U O.O.O.Y ~ O.Y U O.O.O.O.( ( / ( / ( O.( ",
"Y O.U *.=.Y Y #.#.U U O.Y O.O.O.O.~ O.O.O.( ( O.#.#.( ( ( ( O.O.",
"O.O.O.%.Y Y U Y @.U O.O.O.O.O.Y O.O.O.O.O.( O.+.@.O.( ( ( ( / ( ",
"O.Y O.O.U ~ O.U O.O.O.O.O.O.O.O.O.O.~ O.( O.O.O.( O./ ( / ( ( ( ",
"O.O.O.O.O.O.O.O.O.Y O.Y O.Y Y O.O.O.~ O.( ( ^ O.O.( ( ( ( ( / ( "
};
