/* XPM */
static char *result[] = {
/* columns rows colors chars-per-pixel */
"32 32 116 2 ",
"   c #050E02",
".  c #071302",
"X  c #0B1604",
"o  c #0B1D04",
"O  c #111F06",
"+  c #2C1E12",
"@  c #0E2205",
"#  c #0F2905",
"$  c #102706",
"%  c #1B2F0B",
"&  c #133207",
"*  c #143008",
"=  c #163B08",
"-  c #163F1D",
";  c #1B3B1D",
":  c #25260F",
">  c #2F330E",
",  c #292A13",
"<  c #2E2C1B",
"1  c #3B231A",
"2  c #31291A",
"3  c #3C281A",
"4  c #26331C",
"5  c #3C311A",
"6  c #44251D",
"7  c #47281F",
"8  c #42361C",
"9  c #4C2A21",
"0  c #493725",
"q  c #5C3126",
"w  c #623629",
"e  c #66382A",
"r  c #6F3E29",
"t  c #1A450A",
"y  c #1C4B0A",
"u  c #1E570C",
"i  c #144514",
"p  c #174D15",
"a  c #11451E",
"s  c #1D441B",
"d  c #114B1D",
"f  c #0F571C",
"g  c #0F5C1C",
"h  c #11531C",
"j  c #1A561A",
"k  c #115C1B",
"l  c #1C5C1A",
"z  c #2D4B0D",
"x  c #354B16",
"c  c #245B12",
"v  c #215D19",
"b  c #0F621B",
"n  c #166317",
"m  c #1B6513",
"M  c #1D6912",
"N  c #12641B",
"B  c #1B6619",
"V  c #17681A",
"C  c #1C6B19",
"Z  c #25650D",
"A  c #276B0E",
"S  c #2A6B0E",
"D  c #2A750F",
"F  c #2B7A0F",
"G  c #206416",
"H  c #226E13",
"J  c #2E6F17",
"K  c #236519",
"L  c #236D18",
"P  c #247114",
"I  c #2A7414",
"U  c #2C7B10",
"Y  c #247118",
"T  c #2A741A",
"R  c #307416",
"E  c #337D13",
"W  c #3B7E14",
"Q  c #307718",
"!  c #357C19",
"~  c #58531D",
"^  c #5B4920",
"/  c #674427",
"(  c #6B4422",
")  c #744529",
"_  c #725024",
"`  c #8D542C",
"'  c #338110",
"]  c #3D8215",
"[  c #368813",
"{  c #438514",
"}  c #488713",
"|  c #448815",
" . c #4C8C14",
".. c #518E14",
"X. c #439512",
"o. c #449912",
"O. c #499D12",
"+. c #549314",
"@. c #5A9514",
"#. c #5E9A14",
"$. c #639D14",
"%. c #689F14",
"&. c #4DA212",
"*. c #58B015",
"=. c #5DBA14",
"-. c #65A014",
";. c #6CA215",
":. c #6BAC15",
">. c #72A615",
",. c #75A915",
"<. c #7CAC15",
"1. c #61BE14",
"2. c #62C014",
"3. c #80AE16",
"4. c #84B116",
"5. c #89B516",
/* pixels */
"U U ' ' U ' U U U U U I F F U U U I F F ' E F F F F F F F U [ ' ",
"' U U U =.U U U U U U U U F U U U U D F U ' ' P M U ' ' U U F ' ",
"' ' U U =.2.' U o.U U U U *.:. .{ L U o.O.U ' M P M F F M Z U U ",
"U U U U O.2.U o.o.U I M C #.3.5.5.>.j K U U U E P m F M M ' ' E ",
"U =.=.U U O.U X.I I n ! ] 3.5.5.5.%.J f l ! =.U U M U M F U ' U ",
"F ' o.o.U U U U B ..>.3.%.3.5.<.4.,.{ C f a G U U U U U U U U ' ",
"U U U U U U U P B <.5.4.-.@.<.;.+.$.@.W V g f I U U U U F U U U ",
"U U o.X.U U U M n  .<.3.;.{ ..{  .#. .@.>.! k B D ' U U U U U U ",
"U o.o.U U U P I J +.{ T ! ..| ..! ..,.<.5.,.V a j P =.U U U ' U ",
"U U U U F F H ] $.4.;.] $.,.4.<.#.{ $.-.,.;.T N a M =.=.U U o.U ",
"F U U U H F } ;.4.5.<.-.<.<.4.4.#.C V ! { W Y h f d X.1.U O.o.U ",
"U U F H M F $.<.5.:.;.>.<.@.;.;.T h f b C Y C n N n I o.U o.U U ",
"M M F m F M J @.,.;.$.#.-. .>. .v a j Y W %.>.W C k j U U U U U ",
"M M H E M M M E  .#.] <.5.5.5.<.@.W C Q @.,.,.$.E b k U ' U ' U ",
"F M M ' M P k Q ] | #.5.5.5.5.4.>.@.Y T  .$.$.#.! k h M P M ' ' ",
"U U U U F I  .<.>.#.<.5.4.5.5.>.{ @.{ E Q E  .W E h d m P U F U ",
"U ' F F F I  .<.3.>.>.5.<.:.@...#.| W l d V I I V k a m F F U U ",
"U F F O.X.B E #.>.$.{ +.%.-.#.@.#.} E d a f b b N b h G M m M U ",
"U U F F O.[ B |  .Q l T +. . . .{ J K d a d k k N f a n M M F U ",
"' U F F E X.n H B k b b I G B T v d d k f b J E L d d E F F E U ",
"=.=.&.' ' U U j d k N C C h a d d h b N n b L ! l d G M H F E F ",
"U =.2.&.U ' U B d M |  .] C a d g b I W W N g N d l F U m M F F ",
"M M o.O.U ' U U H W ]  .I b d a h N I W E h d f a G U U U M F F ",
"F M M F U U U U F h a l b g d - a a K R K d a a M F U U U U U F ",
"U o.&.' F F F F u i i a a a a < 2 ; a a a a p E X.I F U o.o.o.U ",
"o.o.[ ' F ' U F t y y c s 8 0 9 6 1 1 < 4 , * t O.o.U o.o.o.U U ",
"M m m ' [ o.F U Z & $ z _ w e w q 7 6 7 1 : $ & I o.F O.o.U U U ",
"U M m [ 2.o.' o.A $ # > / w ` ) r q 6 7 5 % # & D F F F U U U U ",
"F F m =.2.m M o.[ & $ # x 0 ( q ) ) 6 > + @ # t o.O.F F U U E ' ",
"F P F =.M M M M O.m $ @ O O X + ^ ~ 3 . . o = W o.' F E U U F F ",
"F U F ' M U F M U ' A z $ o     X X . . # y S ' U E F F U U F U ",
"U U ' U U F ' F U F F F D D A Z S A A F D F F ' F F F F I U U U "
};
