/* XPM */
static char *result[] = {
/* columns rows colors chars-per-pixel */
"32 32 125 2 ",
"   c #2F7F10",
".  c #2C7A10",
"X  c #318110",
"o  c #2F7E10",
"O  c #2D7A10",
"+  c #308010",
"@  c #2D7C10",
"#  c #2C7910",
"$  c #2C7B10",
"%  c #2B7910",
"&  c #2A7810",
"*  c #338010",
"=  c #328010",
"-  c #2E7E10",
";  c #358210",
":  c #348010",
">  c #2E7D10",
",  c #5FBA14",
"<  c #2B7A10",
"1  c #348110",
"2  c #206D12",
"3  c #1D6912",
"4  c #2D7B10",
"5  c #307F10",
"6  c #5DBA14",
"7  c #61BE14",
"8  c #449912",
"9  c #5EBA14",
"0  c #449812",
"q  c #4DA012",
"w  c #489D12",
"e  c #1F6C12",
"r  c #216E12",
"t  c #1C6712",
"y  c #1C6512",
"u  c #2C7810",
"i  c #499D12",
"p  c #449712",
"a  c #5DB814",
"s  c #459912",
"d  c #469912",
"f  c #459812",
"g  c #226F12",
"h  c #1C6812",
"j  c #368310",
"k  c #2F7D10",
"l  c #4A9D12",
"z  c #469B12",
"x  c #459A12",
"c  c #5FBC14",
"v  c #5FBD14",
"b  c #2E7C10",
"n  c #317E10",
"m  c #479B12",
"M  c #489C12",
"N  c #68C214",
"B  c #62C014",
"V  c #307D10",
"C  c #2B7810",
"Z  c #479C12",
"A  c #216C12",
"S  c #226E12",
"D  c #216D12",
"F  c #328110",
"G  c #307E10",
"H  c #1D6A12",
"J  c #4A9E12",
"K  c #489A12",
"L  c #5EBB14",
"P  c #2C7C10",
"I  c #1E6B12",
"U  c #1E6A12",
"Y  c #206A12",
"T  c #1E6912",
"R  c #1C6912",
"E  c #1B6512",
"W  c #317F10",
"Q  c #398510",
"!  c #499F12",
"~  c #4DA312",
"^  c #327C10",
"/  c #1E6C12",
"(  c #2D7D10",
")  c #318010",
"_  c #328210",
"`  c #1B6712",
"'  c #307B10",
"]  c #287212",
"[  c #1F6B12",
"{  c #237012",
"}  c #5FBB14",
"|  c #5DB914",
" . c #61BD14",
".. c #60BD14",
"X. c #469C12",
"o. c #439812",
"O. c #499B12",
"+. c #4FA312",
"@. c #4BA112",
"#. c #358010",
"$. c #2E7B10",
"%. c #2A7910",
"&. c #4A9F12",
"*. c #489B12",
"=. c #1D6812",
"-. c #226D12",
";. c #439712",
":. c #459B12",
">. c #1C6612",
",. c #1F6A12",
"<. c #1A6612",
"1. c #5CB814",
"2. c #449612",
"3. c #267112",
"4. c #1D6B12",
"5. c #5CB914",
"6. c #499C12",
"7. c #2B7710",
"8. c #338110",
"9. c #1B6612",
"0. c #368210",
"q. c #469A12",
"w. c #358110",
"e. c #358310",
"r. c white",
/* pixels */
"  . X o O + @ . # # . . $ . . % % % % & * = - & - $ $ . @ $ ; : ",
"o > $ - , O . @ @ . . $ . $ < . . . % < % 1 1 2 3 4 o 1 . $ # ; ",
"5 - $ . 6 7 + + 8 . $ $ $ 9 7 0 . . $ q w % 5 e r 3 o $ t y u . ",
". 5 . . i 7 - p p $ 5 $ $ . 6 a s $ d f o > . X g t $ 3 h j 1 o ",
"5 6 9 @ k i u p $ $ + $ l z @ 8 0 4 x # 0 c v . o t b h $ . 1 o ",
"$ n z 0 # . $ o > # u # $ z m O 4 . b M N B > @ . . $ $ $ $ $   ",
"@ . @ . . $ $ # # $ # V @ . j O C b . i Z $ k $ < . $ $ $ $ $ . ",
". . x 0 % % # # . . h A S     4 e D = > F 4 $ G C + . $ 4 4 $ 4 ",
"< 0 0 < % . . % V b # h A e $ 3 H b o J K > $ 4 . 4 L @ 4 $ 5 . ",
"< > % . % % n # $ G b - h H . H $ $ > G 8 x $ . % $ 6 L $ $ 8 4 ",
". P . > 2 @ @ $ @ I 3 U 4 . $ $ . > > 4 $ $ % 4 $ $ x c 4 z x $ ",
"% $ . Y T @ $ . > @ H t h $ $ . . $ . . . < . s m b 4 z 4 8 @ $ ",
"R R % E . h H $ $   @ @ o . > . $ W # $ n . C Q ! ~ o > k 4 $ > ",
"3 3 S ^ h 3 $ $ $ > - 4 / R . @ $ ( . ( > u u @ ) ) F 5 > @ _ < ",
"@ U / P T   $ . $ . @ ` h < $ $ s 8 . @ . ' ] I $ - F [ g I + o ",
"@ @ b 4 O . . $ $ . $ $ . $ $ $ $ 0 0 < @ < V r H 4 3 3 { @ . ( ",
"@ ( % % . @ o 5 6 % % % < W L } x . 8 k M K < > ` % h 3 $ $ $ . ",
". > $ 8 Z ( > | | % G @ . >    ...8 $ M 0 -     % . $ . 3 h h . ",
"( $ $ > ! X.# a o.< G @ @ @ = n O.x > 0 @ > o $ u . $ 3 T h 4 4 ",
"5 $ $ $ ) p $ o.% $ o.w > @ b W 5 5 5 > b > $ - o . @ = . 4 V # ",
"c ..+.> ) # + o u 0 M b b $ k o 5 5 4 b o . + > < > $ 2 U @ o $ ",
"% 9 B @.$ 5 5 4 o o o > 4 $ #.) o 4 . b 5 $ $ % - $ $ @ h [ % $ ",
"U 3 z w $ 5 4 o o - @ - 4 . 4 $.@ > o 4 @ $ . . % %.% . . h > % ",
"& U H . $ @ . 5   u b 4 b 3 3 $ ( > t 3 $ 4 < V < . % . % . $ $ ",
"$ o.w < < . b @ $ $ G b @ $ t ` < ` t W V > $ z z # $ % o.0 0 . ",
"p 0 o.. < 4 k . b x &.*.$ $ < 3 b ` . =.-.U > $ M ;.b ;.o.o.. . ",
"` ` ` $ o.0 % $ G b s z :.$ > $ % . >.,.3 5 o $ $ 0 $ z x . . . ",
"% R <.o.1.o.1 2.# 3.=.4.$ $ . % . . S S ) b 5 . . @ $ $ C b o @ ",
"C < <.5.v ` I 0 6.[ ` o %.@ $ * 7.4 $ 8.5 5 b $ 8 z @ # # . o + ",
"%.& %.5.9.` h h i [ @ % < P > & > 1 0.k 5 k G q.0 1 . $ @ $ # k ",
". % % G t . $ h . o . . < o & > ( ; O O b @ w.+ . o # $ # # . . ",
". . e.b $ > n G $ . . . . % $ > > . O @ $ $ u     < $ . # $ . . "
};
