/* XPM */
static char *result[] = {
/* columns rows colors chars-per-pixel */
"32 32 179 2 ",
"   c #030502",
".  c #050A07",
"X  c #170D07",
"o  c #0A1D04",
"O  c #071717",
"+  c #101519",
"@  c #0D2205",
"#  c #0F2905",
"$  c #0C260E",
"%  c #0D2B09",
"&  c #112506",
"*  c #112B06",
"=  c #153708",
"-  c #102C1D",
";  c #0D3317",
":  c #143613",
">  c #1D2623",
",  c #193F20",
"<  c #393233",
"1  c #421D1C",
"2  c #740A07",
"3  c #7A0D0C",
"4  c #790F1A",
"5  c #472812",
"6  c #573516",
"7  c #66260C",
"8  c #703A0F",
"9  c #6E3117",
"0  c #7A3817",
"q  c #433727",
"w  c #6A372A",
"e  c #1A4409",
"r  c #174F0E",
"t  c #1B4B0A",
"y  c #1D530B",
"u  c #1A421F",
"i  c #1C5514",
"p  c #275813",
"a  c #1B6612",
"s  c #1D6912",
"d  c #1C6619",
"f  c #24640D",
"g  c #3D680E",
"h  c #2A740F",
"j  c #2E780F",
"k  c #216D12",
"l  c #246118",
"z  c #326A15",
"x  c #237012",
"c  c #2C7711",
"v  c #2C7B10",
"b  c #327610",
"n  c #307E10",
"m  c #387A15",
"M  c #174E2F",
"N  c #574D0F",
"B  c #5C530F",
"V  c #4E4F10",
"C  c #584912",
"Z  c #475C13",
"A  c #545711",
"S  c #694712",
"D  c #7B5019",
"F  c #457C16",
"G  c #5D7212",
"H  c #686F12",
"J  c #736012",
"K  c #617212",
"L  c #564933",
"P  c #7A4629",
"I  c #0C2E49",
"U  c #0B3D57",
"Y  c #093F5A",
"T  c #063665",
"R  c #186150",
"E  c #084A7D",
"W  c #105178",
"Q  c #294463",
"!  c #434342",
"~  c #535F4C",
"^  c #4F4B51",
"/  c #654B77",
"(  c #8B0E14",
")  c #871115",
"_  c #9D1717",
"`  c #AF0C0C",
"'  c #B20E0E",
"]  c #BC0C0C",
"[  c #A71614",
"{  c #8C3518",
"}  c #AE1B21",
"|  c #B61B24",
" . c #AB2923",
".. c #C20C0C",
"X. c #CE0B0A",
"o. c #DE0907",
"O. c #D30C09",
"+. c #DB0C0A",
"@. c #D21509",
"#. c #E50707",
"$. c #EB0604",
"%. c #E40807",
"&. c #F30404",
"*. c #FD0101",
"=. c #D23009",
"-. c #C51926",
";. c #FF2121",
":. c #855317",
">. c #9D4120",
",. c #8D572A",
"<. c #876D34",
"1. c #A56A2F",
"2. c #AD6F30",
"3. c #B57539",
"4. c #CD5A30",
"5. c #C96D33",
"6. c #C67636",
"7. c #D37638",
"8. c #FD7271",
"9. c #328110",
"0. c #3C8710",
"q. c #4E8715",
"w. c #449712",
"e. c #449912",
"r. c #489D12",
"t. c #569115",
"y. c #4DA212",
"u. c #59AC14",
"i. c #5CB413",
"p. c #5EBA14",
"a. c #7FA615",
"s. c #61BE14",
"d. c #6ABD13",
"f. c #62C014",
"g. c #80A916",
"h. c #85B116",
"j. c #C4803E",
"k. c #94897D",
"l. c #C58541",
"z. c #CF8D4A",
"x. c #D6944A",
"c. c #D99D5C",
"v. c #E49F50",
"b. c #DAA24F",
"n. c #E8A455",
"m. c #EEB65C",
"M. c #CB9D66",
"N. c #DAB176",
"B. c #F1C37A",
"V. c #0B518C",
"C. c #0E5696",
"Z. c #115C93",
"A. c #32628A",
"S. c #105DA2",
"D. c #1365A9",
"F. c #1166AC",
"G. c #1370B7",
"H. c #1473BC",
"J. c #2A6EB1",
"K. c #2473B6",
"L. c #575889",
"P. c #745D90",
"I. c #557B84",
"U. c #5675B7",
"Y. c #6375B6",
"T. c #1778C2",
"R. c #1979C4",
"E. c #1D7DC8",
"W. c #2C7CC6",
"Q. c #217FCA",
"!. c #347FC6",
"~. c #3684CF",
"^. c #3388D6",
"/. c #3C93E5",
"(. c #3F96E9",
"). c #4097EA",
"_. c #DDB89E",
"`. c #E0BD98",
"'. c #CBBEB8",
/* pixels */
"v v 9.v v 9.v v v v v v v v v x v v v x v 9.v v 9.v v v v v 9.9.",
"9.v v v p.v v v v v v v v v v q.v v v v v 9.9.s s v v 9.v v v 9.",
"9.9.v v p.s.9.9.w.v v v v u.q.a.d v v y.y.v 9.s s s 9.v a a v v ",
"v v v v r.s.v w.w.v 9.v v h.q.t.t.h.9.e.v 9.v 9.x s v s a 0.9.v ",
"9.p.p.v v r.v w.v v 9.v p 0.l d l z p c e.s.p.v 9.a v a v v 9.v ",
"v 9.r.w.v v v v v v b S %.D a.z g.F X.J d.s.v v v v v v v v v 9.",
"v v v v v v v v v v Z +.8.=.Z @.K =.%.O.G v 9.v v v v v v v v v ",
"v v e.w.h v v v v v N &.;.&.o.#.+.O.%.O.A v v 9.v v v v v v v v ",
"v 0.y.v v v v h 9.v B $.*.*.$.#.#.#.#.O.H v v v v v p.v v v 9.v ",
"v v v v v h v v v V >...$.$.#.#.#.#.O.' { ,.b v v v p.p.v v w.v ",
"v v v v k 9.v v n 1.v.[ ] X.X.X.] ] [ 3 3.b.8 n v v e.p.9.y.e.v ",
"v v v s s v v v m j.v.3.( ` ] ] ' _ 3 X x.n.,.e.w.v v r.v 0.9.v ",
"a a v a v a a v S n.l.q < 5 3 3 2 1 < X 9 n.x.G e.r.9.9.9.v v 9.",
"s s k v a a v g M.m.,.5 L k.`.n.c.! L b.B 3.B.J 9.9.9.9.v v 9.x ",
"v s s v s 9.v g N.m.:.7 6.'.w n.z.5 _.l.A 2.m.<.9.9.9.s x s 9.9.",
"9.v 9.v v v v v S 6.4.) 9 ,.5.`.N.5.P } } 7.1.g s x s s x 9.x 9.",
"x 9.x 9.v v v 9.i.{ | -./ ^ >.7.7.0 A.-.-. .7 v a v a a v v v v ",
"9.9.9.e.0.v 9.p.d.6 | -.P.~.w 0 0 Q (.| -._ b 9.v v v v s s a v ",
"9.x x 9.y.r.9.p.w.h C ( L.^.U.Y.Y.J.).4 ) Z v v c v v a s a v v ",
"9.9.9.9.9.e.9.0.j j w.V ~ K./.).).Q.I.U z 9.v 9.v v v 9.v v n v ",
"p.p.y.9.9.v v v c e.r.c T /./.).).).J.U b v v v v 9.v s s v 9.v ",
"x p.f.r.v 9.9.v v n n v V.R././.).Q.G.U v v v v v v v v a k v v ",
"s s e.r.v 9.v v n v v n F.Q.R.T.R.Q.E.Z.v v v v v v h v v a v v ",
"9.s a 9.v v v n 9.c n c T.).F.H.T.!.Q.G.c v v n v v v v v v v v ",
"9.0.e.9.9.s 9.9.v k i l C.F.S.T V.F.D.U i a h r.0.9.v v 0.r.e.9.",
"e.e.9.9.9.9.9.s i : - , T S.V.Y E C.V.I ; $ = y y.0.9.w.y.0.x 9.",
"a a a 9.e.e.9.r * $ - u J.^.S.R Z.W.~.W ; $ @ # a e.v e.e.x 9.x ",
"9.a a e.p.0.s r @ % ; > > . I M I O + > : e o # e v v v 9.9.9.9.",
"x 9.a i.p.a r e & # %         e .         t @ @ h 0.v v x v 9.9.",
"9.x 9.i.a a a = * o @ o @ @ # # * * * # @ # @ e 0.9.v v 9.9.x v ",
"x 9.v 9.a v x a t = * @ * @ # @ # # @ # @ * = a 9.9.x 9.x v 9.v ",
"x 9.9.v v v 9.9.v h f f y y y t t e t t y y x 9.9.v 9.v v v v v "
};
